<svg preserveAspectRatio="none" width="100%" height="100%" overflow="visible" style="display: block;" viewBox="0 0 130 19" fill="none" xmlns="http://www.w3.org/2000/svg">
<g id="Group">
<path id="Vector" d="M16.7643 8.46679V9.6592C16.7643 11.3243 16.4891 12.9189 15.8682 14.3089C14.6264 17.0465 12.1851 18.4647 8.62908 18.4647C4.81902 18.4647 2.15904 16.7995 0.867849 13.9349C0.29634 12.6649 0 11.1268 0 9.23586C0 7.34494 0.29634 5.79976 0.867849 4.52974C2.18726 1.64397 4.82608 0 8.67847 0C11.0633 0 13.06 0.670288 14.45 1.94031C15.6918 3.06216 16.4679 4.64968 16.6161 6.49121H12.806C12.679 5.51753 12.3333 4.74846 11.7124 4.20518C10.9927 3.53489 9.8991 3.21033 8.62908 3.21033C6.61116 3.21033 5.19297 4.02878 4.50152 5.6022C4.07818 6.51943 3.90178 7.57073 3.90178 9.23586C3.90178 10.901 4.07818 11.9241 4.50152 12.8695C5.22119 14.4641 6.68877 15.2614 8.72786 15.2614C10.7669 15.2614 12.037 14.5629 12.6861 13.1729C12.933 12.6014 13.06 12.0511 13.0812 11.282H8.74902V8.47385H16.7572L16.7643 8.46679Z" fill="var(--fill-0, #2E7D33)"/>
<path id="Vector_2" d="M17.8155 5.70804H21.2234V6.68172C21.7949 5.78565 22.3946 5.4117 23.2625 5.4117C24.5537 5.4117 25.3792 6.25838 25.3792 7.50018C25.3792 8.74197 24.5607 9.58865 23.3119 9.58865C22.564 9.58865 21.9219 9.2147 21.6185 8.64319C21.3222 8.77019 21.2446 8.96775 21.2446 9.73682V18.0202H17.8085V5.70098L17.8155 5.70804Z" fill="var(--fill-0, #2E7D33)"/>
<path id="Vector_3" d="M34.1141 13.815H37.5714C37.4726 15.0568 36.9505 16.0305 36.132 16.7995C34.989 17.8226 33.2674 18.3447 31.3765 18.3447C28.4131 18.3447 26.2541 17.1523 25.3086 15.0144C24.8853 14.1184 24.7089 13.0741 24.7089 11.8323C24.7089 10.5906 24.9065 9.5957 25.3086 8.7208C26.2259 6.6041 28.2932 5.36231 31.1578 5.36231C34.0224 5.36231 36.0826 6.63232 37.0281 8.7208C37.5291 9.91321 37.649 11.0351 37.649 12.7496H28.1944C28.2438 13.3493 28.3426 13.8432 28.519 14.2666C28.9635 15.2402 29.9089 15.7341 31.306 15.7341C32.202 15.7341 32.9711 15.5366 33.4438 15.085C33.8178 14.7604 34.0436 14.2666 34.1141 13.815ZM28.5119 9.44048C28.3638 9.78621 28.265 10.1108 28.2156 10.5623H34.1353C34.0859 10.0614 33.9871 9.74387 33.8389 9.39109C33.3944 8.44563 32.4984 7.94468 31.2001 7.94468C29.9019 7.94468 28.9635 8.44563 28.5119 9.44048Z" fill="var(--fill-0, #2E7D33)"/>
<path id="Vector_4" d="M47.3717 13.815H50.829C50.7302 15.0568 50.2081 16.0305 49.3896 16.7995C48.2466 17.8226 46.525 18.3447 44.6341 18.3447C41.6707 18.3447 39.5117 17.1523 38.5662 15.0144C38.1429 14.1184 37.9665 13.0741 37.9665 11.8323C37.9665 10.5906 38.1641 9.5957 38.5662 8.7208C39.4835 6.6041 41.5508 5.36231 44.4154 5.36231C47.28 5.36231 49.3402 6.63232 50.2857 8.7208C50.7866 9.91321 50.9066 11.0351 50.9066 12.7496H41.452C41.5014 13.3493 41.6002 13.8432 41.7766 14.2666C42.2211 15.2402 43.1665 15.7341 44.5635 15.7341C45.4596 15.7341 46.2287 15.5366 46.7014 15.085C47.0754 14.7604 47.3011 14.2666 47.3717 13.815ZM41.7766 9.44048C41.6284 9.78621 41.5296 10.1108 41.4802 10.5623H47.3999C47.3505 10.0614 47.2518 9.74387 47.1036 9.39109C46.6591 8.44563 45.763 7.94468 44.4648 7.94468C43.1665 7.94468 42.2281 8.44563 41.7766 9.44048Z" fill="var(--fill-0, #2E7D33)"/>
<path id="Vector_5" d="M63.4727 10.2589V18.0201H60.0366V10.9786C60.0366 9.03829 59.2393 8.21983 57.673 8.21983C56.1066 8.21983 55.1118 9.19351 55.1118 11.1056V18.0201H51.6757V5.70096H55.1118V7.19676C55.9584 6.00435 57.2002 5.35523 58.9218 5.35523C61.8076 5.35523 63.4727 7.04859 63.4727 10.2589Z" fill="var(--fill-0, #2E7D33)"/>
<path id="Vector_6" d="M79.348 14.316H71.9819L70.7895 18.0202H66.9582L72.9273 0.451578H78.4237L84.3928 18.0202H80.5616L79.3409 14.316H79.348ZM78.4025 11.4302L75.6932 3.09745H75.6438L72.9344 11.4302H78.4096H78.4025Z" fill="var(--fill-0, #2E7D33)"/>
<path id="Vector_7" d="M85.1477 8.46679H83.4826V5.70802H85.1477V4.33923C85.1477 1.40407 86.5377 0.0846607 89.8256 0.0846607C90.4748 0.0846607 91.145 0.162273 91.6178 0.261052V3.04804C91.2932 2.92104 90.8205 2.87165 90.4254 2.87165C89.2047 2.87165 88.6121 3.49254 88.6121 4.68495V5.70802H91.5754V8.46679H88.6121V18.0202H85.1548V8.46679H85.1477Z" fill="var(--fill-0, #2E7D33)"/>
<path id="Vector_8" d="M92.0623 5.70804H95.4701V6.68172C96.0417 5.78565 96.6414 5.4117 97.5092 5.4117C98.8004 5.4117 99.6259 6.25838 99.6259 7.50018C99.6259 8.74197 98.8075 9.58865 97.5586 9.58865C96.8107 9.58865 96.1687 9.2147 95.8653 8.64319C95.5689 8.77019 95.4913 8.96775 95.4913 9.73682V18.0202H92.0552V5.70098L92.0623 5.70804Z" fill="var(--fill-0, #2E7D33)"/>
<path id="Vector_9" d="M99.8235 2.34954C99.8235 1.30531 100.621 0.536239 101.764 0.536239C102.907 0.536239 103.655 1.30531 103.655 2.34954C103.655 3.39378 102.857 4.16285 101.764 4.16285C100.67 4.16285 99.8235 3.39378 99.8235 2.34954ZM100.028 5.70804H103.464V18.0272H100.028V5.70804Z" fill="var(--fill-0, #2E7D33)"/>
<path id="Vector_10" d="M104.826 15.0638C104.431 14.1466 104.226 13.0953 104.226 11.8817C104.226 10.6682 104.424 9.5957 104.826 8.69964C105.8 6.56177 107.86 5.36231 110.675 5.36231C112.587 5.36231 114.21 5.91265 115.325 6.92866C116.298 7.79651 116.842 8.99597 116.891 10.4142H113.159C113.109 9.71565 112.862 9.19353 112.46 8.79841C112.037 8.45269 111.416 8.2269 110.696 8.2269C109.574 8.2269 108.707 8.72786 108.283 9.64509C108.036 10.2166 107.937 10.8657 107.937 11.8606C107.937 12.8554 108.036 13.5257 108.283 14.076C108.707 14.9933 109.574 15.4942 110.696 15.4942C111.444 15.4942 112.065 15.2967 112.46 14.9227C112.883 14.5276 113.13 13.949 113.159 13.307H116.891C116.842 14.7534 116.32 15.9176 115.346 16.8136C114.224 17.8085 112.58 18.3588 110.668 18.3588C107.881 18.3588 105.793 17.2158 104.819 15.078L104.826 15.0638Z" fill="var(--fill-0, #2E7D33)"/>
<path id="Vector_11" d="M129.21 10.8798V18.0201H125.753V16.6302C124.935 17.7026 123.587 18.3447 121.597 18.3447C119.608 18.3447 118.041 17.6462 117.42 16.2562C117.195 15.7835 117.096 15.2332 117.096 14.5629C117.096 13.8926 117.195 13.3916 117.392 12.9189C118.288 10.9786 120.624 10.527 123.538 10.527H125.753V10.2801C125.753 9.58157 125.704 9.28524 125.527 8.89012C125.203 8.19161 124.483 7.86705 123.389 7.86705C122.296 7.86705 121.548 8.16339 121.223 8.8619C121.096 9.13707 121.075 9.33463 121.047 9.63097H117.561C117.561 8.96068 117.688 8.38917 117.907 7.86705C118.704 6.1243 120.715 5.35523 123.354 5.35523C126.19 5.35523 127.905 6.15253 128.702 7.89527C129.048 8.69256 129.203 9.68741 129.203 10.8798H129.21ZM125.506 14.3653C125.682 13.9702 125.753 13.5186 125.753 12.8483V12.672H123.784C122.395 12.672 121.174 12.8483 120.821 13.5892C120.744 13.7656 120.694 13.9631 120.694 14.2101C120.694 14.457 120.744 14.6828 120.821 14.8804C121.117 15.5295 121.915 15.7482 122.811 15.7482C124.18 15.7482 125.076 15.2473 125.499 14.3583L125.506 14.3653Z" fill="var(--fill-0, #2E7D33)"/>
</g>
</svg>
