<svg preserveAspectRatio="none" width="100%" height="100%" overflow="visible" style="display: block;" viewBox="0 0 53 53" fill="none" xmlns="http://www.w3.org/2000/svg">
<g id="Group">
<path id="Vector" d="M26.1553 52.3107C40.6005 52.3107 52.3107 40.6005 52.3107 26.1553C52.3107 11.7101 40.6005 0 26.1553 0C11.7101 0 0 11.7101 0 26.1553C0 40.6005 11.7101 52.3107 26.1553 52.3107Z" fill="var(--fill-0, #E7F6E8)"/>
<path id="Vector_2" d="M26.1765 5.29175C30.9179 5.44698 35.4124 7.06978 38.9825 9.81443C41.071 11.4231 42.8349 13.434 44.2461 15.6636C46.0594 18.5352 47.4564 21.7879 47.5411 25.3651C47.6398 29.6126 45.9888 33.6273 43.7875 36.9787C40.5136 41.96 35.3983 46.3134 29.154 46.9131C26.8186 47.1389 24.5678 46.4827 22.7192 45.3397C18.6199 42.8067 16.1151 38.6933 13.3776 34.4669C12.7073 33.4297 12.037 32.3996 11.3808 31.3836C9.94144 29.1328 8.53031 26.9738 7.91647 24.4126C7.47902 22.5852 7.47196 20.666 7.84591 18.7963C8.5162 15.4307 10.4353 12.3827 12.9542 10.0967C16.4609 6.90044 21.167 5.13653 26.1695 5.30586L26.1765 5.29175Z" fill="var(--fill-0, #8BBA8E)"/>
<path id="Vector_3" d="M26.1977 9.68038C29.535 10.0755 32.9429 11.155 35.6734 13.0741C37.2539 14.2031 38.5945 15.6424 39.8292 17.1382C41.4097 19.1279 43.1665 21.2587 43.3923 23.8199C43.5828 26.5575 42.0094 29.2669 40.8452 31.7293C39.0672 35.1019 36.9152 40.2455 33.2322 41.4591C31.3413 42.0588 29.4645 41.064 28.3779 39.3847C26.106 35.9345 26.5857 31.1155 24.1868 27.6864C23.6083 26.8327 22.8815 26.0989 22.0701 25.4639C20.2498 24.0245 17.9426 23.1355 16.3409 21.5551C15.4166 20.659 14.7675 19.4736 14.6687 18.1754C14.4853 15.9176 15.7412 13.7656 17.4134 12.2769C19.777 10.139 23.0297 9.30643 26.1695 9.67332H26.1906L26.1977 9.68038Z" fill="var(--fill-0, #2E7D33)"/>
</g>
</svg>
