<svg preserveAspectRatio="none" width="100%" height="100%" overflow="visible" style="display: block;" viewBox="0 0 24 24" fill="none" xmlns="http://www.w3.org/2000/svg">
<g id="BeerBottle">
<path id="Vector" d="M23.0306 3.96937L20.0306 0.969375C19.8899 0.828645 19.699 0.749583 19.5 0.749583C19.301 0.749583 19.1101 0.828644 18.9694 0.969375C18.8286 1.11011 18.7496 1.30098 18.7496 1.5C18.7496 1.69902 18.8286 1.88989 18.9694 2.03063L19.1081 2.16844L13.9359 6.04781L10.3528 6.765C10.2077 6.79406 10.0744 6.86513 9.96937 6.96937L2.15625 14.7806C1.73433 15.2026 1.49729 15.7749 1.49729 16.3716C1.49729 16.9683 1.73433 17.5405 2.15625 17.9625L6.0375 21.8438C6.45945 22.2657 7.03173 22.5027 7.62844 22.5027C8.22515 22.5027 8.79742 22.2657 9.21937 21.8438L17.0306 14.0334C17.1351 13.9286 17.2062 13.7952 17.235 13.65L17.9522 10.0669L21.8316 4.89469L21.9694 5.03344C22.0391 5.10312 22.1218 5.1584 22.2128 5.19611C22.3039 5.23382 22.4015 5.25323 22.5 5.25323C22.5985 5.25323 22.6961 5.23382 22.7872 5.19611C22.8782 5.1584 22.9609 5.10312 23.0306 5.03344C23.1003 4.96375 23.1556 4.88103 23.1933 4.78998C23.231 4.69894 23.2504 4.60136 23.2504 4.50281C23.2504 4.40427 23.231 4.30669 23.1933 4.21564C23.1556 4.1246 23.1003 4.04187 23.0306 3.97219V3.96937ZM9 10.0603L13.9397 15L9.75 19.1897L4.81031 14.25L9 10.0603ZM7.62844 21C7.53003 21.0003 7.43255 20.981 7.34163 20.9434C7.25071 20.9057 7.16816 20.8504 7.09875 20.7806L3.21937 16.9013C3.07883 16.7606 2.99988 16.5699 2.99988 16.3711C2.99988 16.1723 3.07883 15.9816 3.21937 15.8409L3.75 15.3103L8.68969 20.25L8.15625 20.7806C8.01617 20.9206 7.82644 20.9994 7.62844 21ZM16.65 9.3C16.5828 9.38947 16.5366 9.49299 16.515 9.60281L15.8091 13.1306L15 13.9397L10.0603 9L10.8694 8.19094L14.3972 7.485C14.507 7.4634 14.6105 7.41725 14.7 7.35L20.1797 3.24L20.76 3.82031L16.65 9.3Z" fill="var(--fill-0, #1E1E1E)"/>
</g>
</svg>
