<svg preserveAspectRatio="none" width="100%" height="100%" overflow="visible" style="display: block;" viewBox="0 0 61 61" fill="none" xmlns="http://www.w3.org/2000/svg">
<g id="Group">
<path id="Vector" d="M30.4959 60.9917C47.3383 60.9917 60.9917 47.3383 60.9917 30.4959C60.9917 13.6535 47.3383 0 30.4959 0C13.6535 0 0 13.6535 0 30.4959C0 47.3383 13.6535 60.9917 30.4959 60.9917Z" fill="var(--fill-0, #2E7D33)"/>
<path id="Vector_2" d="M30.5207 6.17196C36.0473 6.35398 41.2927 8.24859 45.4542 11.4421C47.8866 13.3202 49.9467 15.6616 51.5848 18.2594C53.7028 21.6019 55.3327 25.3994 55.4237 29.5692C55.5313 34.5167 53.6118 39.2078 51.0471 43.1045C47.2247 48.9125 41.2679 53.9924 33.9873 54.6873C31.2653 54.9438 28.6426 54.1909 26.4832 52.8589C21.7012 49.9053 18.7807 45.1067 15.5954 40.184C14.8094 38.9761 14.0317 37.7765 13.2706 36.5851C11.5911 33.9624 9.95294 31.4473 9.23315 28.4523C8.7202 26.3178 8.7202 24.0839 9.15042 21.8997C9.93639 17.9699 12.1619 14.4288 15.1073 11.7565C19.1944 8.03348 24.6879 5.9734 30.5207 6.17196Z" fill="var(--fill-0, #8BBA8E)"/>
<path id="Vector_3" d="M30.5455 11.285C34.434 11.7483 38.4135 13.0059 41.5988 15.248C43.4438 16.5635 45.0075 18.243 46.447 19.9887C48.2837 22.3052 50.3438 24.7955 50.6003 27.7822C50.8237 30.9675 48.987 34.128 47.6301 36.9988C45.5535 40.9287 43.0467 46.9352 38.7527 48.3417C36.552 49.045 34.3596 47.8867 33.0937 45.9259C30.4462 41.905 31.0005 36.2873 28.2041 32.283C27.534 31.2902 26.6901 30.4297 25.7386 29.6934C23.6206 28.0222 20.9235 26.9714 19.0537 25.1347C17.9782 24.084 17.217 22.7106 17.1012 21.1966C16.8861 18.5574 18.3505 16.0505 20.303 14.3214C23.058 11.8311 26.8473 10.8548 30.5124 11.285H30.5372H30.5455Z" fill="var(--fill-0, #E7F6E8)"/>
</g>
</svg>
