<svg preserveAspectRatio="none" width="100%" height="100%" overflow="visible" style="display: block;" viewBox="0 0 151 22" fill="none" xmlns="http://www.w3.org/2000/svg">
<g id="Group">
<path id="Vector" d="M19.5501 9.86193V11.2519C19.5501 13.1961 19.2274 15.0494 18.5077 16.6792C17.0598 19.8728 14.2138 21.5275 10.0688 21.5275C5.6342 21.5275 2.52339 19.5832 1.01763 16.249C0.347481 14.7681 0 12.9727 0 10.7637C0 8.55473 0.347481 6.75939 1.01763 5.27845C2.55649 1.91116 5.6342 0 10.1267 0C12.9148 0 15.2314 0.785976 16.853 2.26692C18.3008 3.57412 19.2026 5.42737 19.3764 7.57846H14.9418C14.7929 6.445 14.3875 5.55147 13.6677 4.90614C12.8238 4.12017 11.5497 3.74786 10.0688 3.74786C7.71911 3.74786 6.06442 4.70758 5.25363 6.53601C4.75722 7.61155 4.55866 8.82775 4.55866 10.772C4.55866 12.7163 4.76549 13.9076 5.25363 15.008C6.09752 16.8612 7.81012 17.7961 10.1846 17.7961C12.5591 17.7961 14.04 16.9853 14.8012 15.3555C15.0907 14.6853 15.2397 14.0483 15.2645 13.1465H10.2177V9.8702H19.5584L19.5501 9.86193Z" fill="var(--fill-0, #E7F6E8)"/>
<path id="Vector_2" d="M20.7746 6.64371H24.7458V7.77717C25.416 6.73472 26.1109 6.29623 27.1286 6.29623C28.6343 6.29623 29.5941 7.28077 29.5941 8.73689C29.5941 10.193 28.6343 11.1776 27.1865 11.1776C26.3178 11.1776 25.5649 10.7391 25.2174 10.0772C24.8699 10.2261 24.7789 10.4578 24.7789 11.3513V21.0147H20.7746V6.65199V6.64371Z" fill="var(--fill-0, #E7F6E8)"/>
<path id="Vector_3" d="M39.7786 16.1002H43.8078C43.692 17.548 43.0797 18.6815 42.1283 19.5833C40.7963 20.7747 38.7941 21.3786 36.5851 21.3786C33.1351 21.3786 30.6117 19.9887 29.5031 17.4901C29.0066 16.4477 28.8081 15.2315 28.8081 13.7754C28.8081 12.3192 29.0397 11.1609 29.5031 10.1516C30.5786 7.68611 32.9862 6.23826 36.3204 6.23826C39.6546 6.23826 42.0621 7.7192 43.1708 10.1516C43.7499 11.5415 43.8988 12.8487 43.8988 14.8509H32.8786C32.9365 15.5459 33.0524 16.125 33.2592 16.6214C33.7804 17.7549 34.8808 18.334 36.5106 18.334C37.5531 18.334 38.4549 18.1024 39.0092 17.5811C39.4477 17.2006 39.7042 16.6214 39.7952 16.1002H39.7786ZM33.2509 10.9955C33.0772 11.4009 32.9613 11.7815 32.9034 12.3027H39.8035C39.7456 11.7235 39.6297 11.343 39.456 10.9376C38.9348 9.8372 37.8923 9.25806 36.3783 9.25806C34.8642 9.25806 33.7639 9.8372 33.2426 10.9955H33.2509Z" fill="var(--fill-0, #E7F6E8)"/>
<path id="Vector_4" d="M55.2417 16.1002H59.2708C59.155 17.548 58.5428 18.6815 57.5913 19.5833C56.2593 20.7747 54.2572 21.3786 52.0481 21.3786C48.5981 21.3786 46.0747 19.9887 44.9661 17.4901C44.4697 16.4477 44.2711 15.2315 44.2711 13.7754C44.2711 12.3192 44.5028 11.1609 44.9661 10.1516C46.0416 7.68611 48.4492 6.23826 51.7834 6.23826C55.1176 6.23826 57.5252 7.7192 58.6338 10.1516C59.2129 11.5415 59.3619 12.8487 59.3619 14.8509H48.3417C48.3996 15.5459 48.5154 16.125 48.7222 16.6214C49.2435 17.7549 50.3438 18.334 51.9737 18.334C53.0161 18.334 53.918 18.1024 54.4723 17.5811C54.9108 17.2006 55.1672 16.6214 55.2582 16.1002H55.2417ZM48.714 10.9955C48.5402 11.4009 48.4244 11.7815 48.3665 12.3027H55.2665C55.2086 11.7235 55.0928 11.343 54.919 10.9376C54.3978 9.8372 53.3554 9.25806 51.8413 9.25806C50.3273 9.25806 49.2269 9.8372 48.7057 10.9955H48.714Z" fill="var(--fill-0, #E7F6E8)"/>
<path id="Vector_5" d="M74.0058 11.9469V20.9981H70.0015V12.7908C70.0015 10.5239 69.0748 9.57245 67.2464 9.57245C65.418 9.57245 64.2597 10.7059 64.2597 12.9397V21.0063H60.2554V6.64366H64.2597V8.38108C65.2443 6.99114 66.7004 6.23826 68.6943 6.23826C72.0616 6.23826 74.0058 8.20733 74.0058 11.9552V11.9469Z" fill="var(--fill-0, #E7F6E8)"/>
<path id="Vector_6" d="M92.5217 16.6794H83.9339L82.544 20.9981H78.0763L85.0426 0.513108H91.4545L98.4207 20.9981H93.9531L92.53 16.6794H92.5217ZM91.4214 13.3121L88.2609 3.59083H88.203L85.0426 13.3121H91.4214Z" fill="var(--fill-0, #E7F6E8)"/>
<path id="Vector_7" d="M99.2811 9.86207H97.3369V6.6437H99.2811V5.04693C99.2811 1.62173 100.903 0.0828736 104.733 0.0828736C105.486 0.0828736 106.272 0.165608 106.818 0.289709V3.54117C106.438 3.40052 105.892 3.33433 105.428 3.33433C104.005 3.33433 103.31 4.06239 103.31 5.45233V6.6437H106.76V9.86207H103.31V20.9981H99.2811V9.86207Z" fill="var(--fill-0, #E7F6E8)"/>
<path id="Vector_8" d="M107.348 6.64371H111.319V7.77717C111.989 6.73472 112.684 6.29623 113.702 6.29623C115.208 6.29623 116.167 7.28077 116.167 8.73689C116.167 10.193 115.208 11.1776 113.76 11.1776C112.891 11.1776 112.138 10.7391 111.791 10.0772C111.443 10.2261 111.352 10.4578 111.352 11.3513V21.0147H107.348V6.65199V6.64371Z" fill="var(--fill-0, #E7F6E8)"/>
<path id="Vector_9" d="M116.399 2.722C116.399 1.50581 117.326 0.604003 118.666 0.604003C120.006 0.604003 120.875 1.50581 120.875 2.722C120.875 3.93819 119.948 4.84 118.666 4.84C117.383 4.84 116.399 3.93819 116.399 2.722ZM116.631 6.64361H120.635V21.0063H116.631V6.64361Z" fill="var(--fill-0, #E7F6E8)"/>
<path id="Vector_10" d="M122.232 17.548C121.768 16.4725 121.537 15.2563 121.537 13.8333C121.537 12.4102 121.768 11.1609 122.232 10.1185C123.365 7.61991 125.773 6.22998 129.049 6.22998C131.283 6.22998 133.169 6.86703 134.476 8.0584C135.61 9.07603 136.247 10.466 136.305 12.1207H131.953C131.895 11.3099 131.605 10.6976 131.142 10.2343C130.646 9.82892 129.926 9.56417 129.082 9.56417C127.775 9.56417 126.765 10.1433 126.269 11.2189C125.98 11.889 125.864 12.6419 125.864 13.8002C125.864 14.9584 125.98 15.7444 126.269 16.3815C126.765 17.457 127.775 18.0362 129.082 18.0362C129.951 18.0362 130.679 17.8045 131.142 17.366C131.639 16.9027 131.928 16.2326 131.953 15.4797H136.305C136.247 17.1592 135.635 18.5243 134.509 19.5667C133.202 20.725 131.291 21.3621 129.057 21.3621C125.806 21.3621 123.373 20.0301 122.24 17.5315L122.232 17.548Z" fill="var(--fill-0, #E7F6E8)"/>
<path id="Vector_11" d="M150.659 12.675V20.9981H146.63V19.3765C145.67 20.6258 144.107 21.3786 141.782 21.3786C139.457 21.3786 137.637 20.5678 136.909 18.938C136.644 18.3837 136.528 17.7466 136.528 16.9689C136.528 16.1912 136.644 15.6038 136.876 15.0577C137.918 12.7991 140.648 12.2696 144.04 12.2696H146.622V11.98C146.622 11.1692 146.564 10.8217 146.357 10.3584C145.976 9.54763 145.141 9.16705 143.858 9.16705C142.576 9.16705 141.716 9.51454 141.335 10.3253C141.194 10.6397 141.161 10.8797 141.128 11.2271H137.066C137.066 10.4412 137.215 9.77929 137.471 9.16705C138.398 7.14006 140.748 6.23826 143.825 6.23826C147.135 6.23826 149.137 7.16488 150.063 9.20015C150.469 10.1268 150.643 11.285 150.643 12.6833L150.659 12.675ZM146.34 16.7372C146.547 16.2739 146.63 15.7527 146.63 14.9667V14.7599H144.338C142.717 14.7599 141.294 14.9667 140.888 15.8354C140.797 16.0423 140.739 16.2739 140.739 16.5635C140.739 16.8531 140.797 17.1178 140.888 17.3495C141.236 18.1024 142.162 18.3671 143.205 18.3671C144.802 18.3671 145.844 17.788 146.34 16.7455V16.7372Z" fill="var(--fill-0, #E7F6E8)"/>
</g>
</svg>
