<?xml version="1.0" encoding="UTF-8"?>
<svg id="Layer_2" data-name="Layer 2" xmlns="http://www.w3.org/2000/svg" viewBox="0 0 266.36 73.73">
  <defs>
    <style>
      .cls-1 {
        fill: #8bba8e;
      }

      .cls-2 {
        fill: #2e7d33;
      }

      .cls-3 {
        fill: #e7f6e8;
      }
    </style>
  </defs>
  <g id="Layer_1-2" data-name="Layer 1">
    <g>
      <g>
        <circle class="cls-2" cx="36.86" cy="36.86" r="36.86"/>
        <path class="cls-1" d="M36.89,7.46c6.68.22,13.02,2.51,18.05,6.37,2.94,2.27,5.43,5.1,7.41,8.24,2.56,4.04,4.53,8.63,4.64,13.67.13,5.98-2.19,11.65-5.29,16.36-4.62,7.02-11.82,13.16-20.62,14-3.29.31-6.46-.6-9.07-2.21-5.78-3.57-9.31-9.37-13.16-15.32-.95-1.46-1.89-2.91-2.81-4.35-2.03-3.17-4.01-6.21-4.88-9.83-.62-2.58-.62-5.28-.1-7.92.95-4.75,3.64-9.03,7.2-12.26,4.94-4.5,11.58-6.99,18.63-6.75Z"/>
        <path class="cls-3" d="M36.92,13.64c4.7.56,9.51,2.08,13.36,4.79,2.23,1.59,4.12,3.62,5.86,5.73,2.22,2.8,4.71,5.81,5.02,9.42.27,3.85-1.95,7.67-3.59,11.14-2.51,4.75-5.54,12.01-10.73,13.71-2.66.85-5.31-.55-6.84-2.92-3.2-4.86-2.53-11.65-5.91-16.49-.81-1.2-1.83-2.24-2.98-3.13-2.56-2.02-5.82-3.29-8.08-5.51-1.3-1.27-2.22-2.93-2.36-4.76-.26-3.19,1.51-6.22,3.87-8.31,3.33-3.01,7.91-4.19,12.34-3.67h.03Z"/>
      </g>
      <g>
        <path class="cls-3" d="M107.89,37.43v1.68c0,2.35-.39,4.59-1.26,6.56-1.75,3.86-5.19,5.86-10.2,5.86-5.36,0-9.12-2.35-10.94-6.38-.81-1.79-1.23-3.96-1.23-6.63s.42-4.84,1.23-6.63c1.86-4.07,5.58-6.38,11.01-6.38,3.37,0,6.17.95,8.13,2.74,1.75,1.58,2.84,3.82,3.05,6.42h-5.36c-.18-1.37-.67-2.45-1.54-3.23-1.02-.95-2.56-1.4-4.35-1.4-2.84,0-4.84,1.16-5.82,3.37-.6,1.3-.84,2.77-.84,5.12s.25,3.79.84,5.12c1.02,2.24,3.09,3.37,5.96,3.37s4.66-.98,5.58-2.95c.35-.81.53-1.58.56-2.67h-6.1v-3.96h11.29Z"/>
        <path class="cls-3" d="M109.37,33.54h4.8v1.37c.81-1.26,1.65-1.79,2.88-1.79,1.82,0,2.98,1.19,2.98,2.95s-1.16,2.95-2.91,2.95c-1.05,0-1.96-.53-2.38-1.33-.42.18-.53.46-.53,1.54v11.68h-4.84v-17.36Z"/>
        <path class="cls-3" d="M132.34,44.97h4.87c-.14,1.75-.88,3.12-2.03,4.21-1.61,1.44-4.03,2.17-6.7,2.17-4.17,0-7.22-1.68-8.56-4.7-.6-1.26-.84-2.73-.84-4.49s.28-3.16.84-4.38c1.3-2.98,4.21-4.73,8.24-4.73s6.94,1.79,8.28,4.73c.7,1.68.88,3.26.88,5.68h-13.32c.07.84.21,1.54.46,2.14.63,1.37,1.96,2.07,3.93,2.07,1.26,0,2.35-.28,3.02-.91.53-.46.84-1.16.95-1.79ZM124.45,38.8c-.21.49-.35.95-.42,1.58h8.34c-.07-.7-.21-1.16-.42-1.65-.63-1.33-1.89-2.03-3.72-2.03s-3.16.7-3.79,2.1Z"/>
        <path class="cls-3" d="M151.03,44.97h4.87c-.14,1.75-.88,3.12-2.03,4.21-1.61,1.44-4.03,2.17-6.7,2.17-4.17,0-7.22-1.68-8.56-4.7-.6-1.26-.84-2.73-.84-4.49s.28-3.16.84-4.38c1.3-2.98,4.21-4.73,8.24-4.73s6.94,1.79,8.28,4.73c.7,1.68.88,3.26.88,5.68h-13.32c.07.84.21,1.54.46,2.14.63,1.37,1.96,2.07,3.93,2.07,1.26,0,2.35-.28,3.02-.91.53-.46.84-1.16.95-1.79ZM143.14,38.8c-.21.49-.35.95-.42,1.58h8.34c-.07-.7-.21-1.16-.42-1.65-.63-1.33-1.89-2.03-3.72-2.03s-3.16.7-3.79,2.1Z"/>
        <path class="cls-3" d="M173.71,39.95v10.94h-4.84v-9.92c0-2.74-1.12-3.89-3.33-3.89s-3.61,1.37-3.61,4.07v9.75h-4.84v-17.36h4.84v2.1c1.19-1.68,2.95-2.59,5.36-2.59,4.07,0,6.42,2.38,6.42,6.91Z"/>
        <path class="cls-3" d="M196.09,45.67h-10.38l-1.68,5.22h-5.4l8.42-24.76h7.75l8.42,24.76h-5.4l-1.72-5.22ZM194.76,41.6l-3.82-11.75h-.07l-3.82,11.75h7.71Z"/>
        <path class="cls-3" d="M204.26,37.43h-2.35v-3.89h2.35v-1.93c0-4.14,1.96-6,6.59-6,.91,0,1.86.1,2.52.25v3.93c-.46-.17-1.12-.25-1.68-.25-1.72,0-2.56.88-2.56,2.56v1.44h4.17v3.89h-4.17v13.46h-4.87v-13.46Z"/>
        <path class="cls-3" d="M214.01,33.54h4.8v1.37c.81-1.26,1.65-1.79,2.88-1.79,1.82,0,2.98,1.19,2.98,2.95s-1.16,2.95-2.91,2.95c-1.05,0-1.96-.53-2.38-1.33-.42.18-.53.46-.53,1.54v11.68h-4.84v-17.36Z"/>
        <path class="cls-3" d="M224.95,28.8c0-1.47,1.12-2.56,2.74-2.56s2.67,1.09,2.67,2.56-1.12,2.56-2.67,2.56-2.74-1.09-2.74-2.56ZM225.23,33.54h4.84v17.36h-4.84v-17.36Z"/>
        <path class="cls-3" d="M232,46.72c-.56-1.3-.84-2.77-.84-4.49s.28-3.23.84-4.49c1.37-3.02,4.28-4.7,8.24-4.7,2.7,0,4.98.77,6.56,2.21,1.37,1.23,2.14,2.91,2.21,4.91h-5.26c-.07-.98-.42-1.72-.98-2.28-.6-.49-1.47-.81-2.49-.81-1.58,0-2.8.7-3.4,2-.35.81-.49,1.72-.49,3.12s.14,2.35.49,3.12c.6,1.3,1.82,2,3.4,2,1.05,0,1.93-.28,2.49-.81.6-.56.95-1.37.98-2.28h5.26c-.07,2.03-.81,3.68-2.17,4.94-1.58,1.4-3.89,2.17-6.59,2.17-3.93,0-6.87-1.61-8.24-4.63Z"/>
        <path class="cls-3" d="M266.36,40.83v10.06h-4.87v-1.96c-1.16,1.51-3.05,2.42-5.86,2.42s-5.01-.98-5.89-2.95c-.32-.67-.46-1.44-.46-2.38s.14-1.65.42-2.31c1.26-2.73,4.56-3.37,8.66-3.37h3.12v-.35c0-.98-.07-1.4-.32-1.96-.46-.98-1.47-1.44-3.02-1.44s-2.59.42-3.05,1.4c-.17.38-.21.67-.25,1.09h-4.91c0-.95.18-1.75.49-2.49,1.12-2.45,3.96-3.54,7.68-3.54,4,0,6.42,1.12,7.54,3.58.49,1.12.7,2.52.7,4.21ZM261.14,45.74c.25-.56.35-1.19.35-2.14v-.25h-2.77c-1.96,0-3.68.25-4.17,1.3-.11.25-.18.53-.18.88s.07.67.18.95c.42.91,1.54,1.23,2.8,1.23,1.93,0,3.19-.7,3.79-1.96Z"/>
      </g>
    </g>
  </g>
</svg>