<?xml version="1.0" encoding="UTF-8"?>
<svg id="Layer_2" data-name="Layer 2" xmlns="http://www.w3.org/2000/svg" viewBox="0 0 51.01 53.19">
  <defs>
    <style>
      .cls-1 {
        fill: #8bba8e;
      }

      .cls-2 {
        fill: #2e7d33;
      }
    </style>
  </defs>
  <g id="Layer_1-2" data-name="Layer 1">
    <g>
      <path class="cls-1" d="M23.74.01c6.05.2,11.79,2.27,16.35,5.77,2.66,2.06,4.92,4.62,6.72,7.47,2.31,3.66,4.1,7.81,4.2,12.38.12,5.42-1.98,10.55-4.79,14.82-4.18,6.35-10.71,11.92-18.68,12.68-2.98.28-5.85-.55-8.22-2.01-5.23-3.23-8.43-8.48-11.92-13.88-.86-1.32-1.72-2.64-2.54-3.94-1.84-2.87-3.64-5.63-4.42-8.9-.56-2.34-.57-4.78-.09-7.17.86-4.3,3.3-8.18,6.52-11.11C11.34,2.05,17.35-.2,23.74.01Z"/>
      <path class="cls-2" d="M23.76,5.61c4.26.5,8.61,1.88,12.1,4.34,2.02,1.44,3.73,3.28,5.31,5.19,2.01,2.54,4.26,5.26,4.55,8.53.24,3.49-1.76,6.95-3.25,10.09-2.27,4.31-5.02,10.87-9.72,12.42-2.41.77-4.81-.5-6.2-2.65-2.9-4.41-2.29-10.55-5.35-14.93-.74-1.09-1.66-2.03-2.7-2.83-2.32-1.83-5.27-2.98-7.32-4.99-1.18-1.15-2.01-2.66-2.14-4.31-.23-2.89,1.37-5.63,3.51-7.53,3.02-2.73,7.17-3.79,11.18-3.33h.03Z"/>
    </g>
  </g>
</svg>