<?xml version="1.0" encoding="UTF-8"?>
<svg id="Layer_2" data-name="Layer 2" xmlns="http://www.w3.org/2000/svg" viewBox="0 0 73.73 73.73">
  <defs>
    <style>
      .cls-1 {
        fill: #8bba8e;
      }

      .cls-2 {
        fill: #2e7d33;
      }

      .cls-3 {
        fill: #e7f6e8;
      }
    </style>
  </defs>
  <g id="Layer_1-2" data-name="Layer 1">
    <g>
      <circle class="cls-2" cx="36.86" cy="36.86" r="36.86"/>
      <path class="cls-1" d="M36.89,7.46c6.68.22,13.02,2.51,18.05,6.37,2.94,2.27,5.43,5.1,7.41,8.24,2.56,4.04,4.53,8.63,4.64,13.67.13,5.98-2.19,11.65-5.29,16.36-4.62,7.02-11.82,13.16-20.62,14-3.29.31-6.46-.6-9.07-2.21-5.78-3.57-9.31-9.37-13.16-15.32-.95-1.46-1.89-2.91-2.81-4.35-2.03-3.17-4.01-6.21-4.88-9.83-.62-2.58-.62-5.28-.1-7.92.95-4.75,3.64-9.03,7.2-12.26,4.94-4.5,11.58-6.99,18.63-6.75Z"/>
      <path class="cls-3" d="M36.92,13.64c4.7.56,9.51,2.08,13.36,4.79,2.23,1.59,4.12,3.62,5.86,5.73,2.22,2.8,4.71,5.81,5.02,9.42.27,3.85-1.95,7.67-3.59,11.14-2.51,4.75-5.54,12.01-10.73,13.71-2.66.85-5.31-.55-6.84-2.92-3.2-4.86-2.53-11.65-5.91-16.49-.81-1.2-1.83-2.24-2.98-3.13-2.56-2.02-5.82-3.29-8.08-5.51-1.3-1.27-2.22-2.93-2.36-4.76-.26-3.19,1.51-6.22,3.87-8.31,3.33-3.01,7.91-4.19,12.34-3.67h.03Z"/>
    </g>
  </g>
</svg>