<?xml version="1.0" encoding="UTF-8"?>
<svg id="Layer_2" data-name="Layer 2" xmlns="http://www.w3.org/2000/svg" viewBox="0 0 267.87 74.15">
  <defs>
    <style>
      .cls-1 {
        fill: #8bba8e;
      }

      .cls-2 {
        fill: #2e7d33;
      }

      .cls-3 {
        fill: #e7f6e8;
      }
    </style>
  </defs>
  <g id="Layer_1-2" data-name="Layer 1">
    <g>
      <g>
        <circle class="cls-3" cx="37.07" cy="37.07" r="37.07"/>
        <path class="cls-1" d="M37.1,7.5c6.72.22,13.09,2.52,18.15,6.41,2.96,2.28,5.46,5.13,7.46,8.29,2.57,4.07,4.55,8.68,4.67,13.75.14,6.02-2.2,11.71-5.32,16.46-4.64,7.06-11.89,13.23-20.74,14.08-3.31.32-6.5-.61-9.12-2.23-5.81-3.59-9.36-9.42-13.24-15.41-.95-1.47-1.9-2.93-2.83-4.37-2.04-3.19-4.04-6.25-4.91-9.88-.62-2.59-.63-5.31-.1-7.96.95-4.77,3.67-9.09,7.24-12.33,4.97-4.53,11.64-7.03,18.73-6.79Z"/>
        <path class="cls-2" d="M37.13,13.72c4.73.56,9.56,2.09,13.43,4.81,2.24,1.6,4.14,3.64,5.89,5.76,2.24,2.82,4.73,5.84,5.05,9.47.27,3.88-1.96,7.72-3.61,11.21-2.52,4.78-5.57,12.07-10.79,13.79-2.68.85-5.34-.56-6.88-2.94-3.22-4.89-2.54-11.72-5.94-16.58-.82-1.21-1.85-2.25-3-3.15-2.58-2.04-5.85-3.3-8.12-5.54-1.31-1.27-2.23-2.95-2.37-4.79-.26-3.2,1.52-6.25,3.89-8.36,3.35-3.03,7.96-4.21,12.41-3.69h.03Z"/>
      </g>
      <g>
        <path class="cls-2" d="M108.5,37.64v1.69c0,2.36-.39,4.62-1.27,6.59-1.76,3.88-5.22,5.89-10.26,5.89-5.4,0-9.17-2.36-11-6.42-.81-1.8-1.23-3.98-1.23-6.66s.42-4.87,1.23-6.67c1.87-4.09,5.61-6.42,11.07-6.42,3.38,0,6.21.95,8.18,2.75,1.76,1.59,2.86,3.84,3.07,6.45h-5.4c-.18-1.38-.67-2.47-1.55-3.24-1.02-.95-2.57-1.41-4.37-1.41-2.86,0-4.87,1.16-5.85,3.39-.6,1.3-.85,2.79-.85,5.15s.25,3.81.85,5.15c1.02,2.26,3.1,3.39,5.99,3.39s4.69-.99,5.61-2.96c.35-.81.53-1.59.56-2.68h-6.14v-3.98h11.35Z"/>
        <path class="cls-2" d="M109.99,33.73h4.83v1.38c.81-1.27,1.66-1.8,2.89-1.8,1.83,0,3,1.2,3,2.96s-1.16,2.96-2.93,2.96c-1.06,0-1.97-.53-2.4-1.34-.42.18-.53.46-.53,1.55v11.74h-4.87v-17.46Z"/>
        <path class="cls-2" d="M133.09,45.22h4.9c-.14,1.76-.88,3.14-2.04,4.23-1.62,1.45-4.06,2.19-6.74,2.19-4.2,0-7.26-1.69-8.6-4.72-.6-1.27-.85-2.75-.85-4.51s.28-3.17.85-4.41c1.3-3,4.23-4.76,8.29-4.76s6.98,1.8,8.32,4.76c.71,1.69.88,3.28.88,5.71h-13.4c.07.85.21,1.55.46,2.15.63,1.38,1.97,2.08,3.95,2.08,1.27,0,2.36-.28,3.03-.92.53-.46.85-1.16.95-1.8ZM125.15,39.02c-.21.49-.35.95-.42,1.59h8.39c-.07-.71-.21-1.16-.42-1.66-.63-1.34-1.9-2.05-3.74-2.05s-3.17.71-3.81,2.12Z"/>
        <path class="cls-2" d="M151.88,45.22h4.9c-.14,1.76-.88,3.14-2.04,4.23-1.62,1.45-4.06,2.19-6.74,2.19-4.2,0-7.26-1.69-8.6-4.72-.6-1.27-.85-2.75-.85-4.51s.28-3.17.85-4.41c1.3-3,4.23-4.76,8.29-4.76s6.98,1.8,8.32,4.76c.71,1.69.88,3.28.88,5.71h-13.4c.07.85.21,1.55.46,2.15.63,1.38,1.97,2.08,3.95,2.08,1.27,0,2.36-.28,3.03-.92.53-.46.85-1.16.95-1.8ZM143.95,39.02c-.21.49-.35.95-.42,1.59h8.39c-.07-.71-.21-1.16-.42-1.66-.63-1.34-1.9-2.05-3.74-2.05s-3.17.71-3.81,2.12Z"/>
        <path class="cls-2" d="M174.7,40.18v11h-4.87v-9.98c0-2.75-1.13-3.91-3.35-3.91s-3.63,1.38-3.63,4.09v9.8h-4.87v-17.46h4.87v2.12c1.2-1.69,2.96-2.61,5.4-2.61,4.09,0,6.45,2.4,6.45,6.95Z"/>
        <path class="cls-2" d="M197.2,45.93h-10.44l-1.69,5.25h-5.43l8.46-24.9h7.79l8.46,24.9h-5.43l-1.73-5.25ZM195.86,41.84l-3.84-11.81h-.07l-3.84,11.81h7.76Z"/>
        <path class="cls-2" d="M205.42,37.64h-2.36v-3.91h2.36v-1.94c0-4.16,1.97-6.03,6.63-6.03.92,0,1.87.11,2.54.25v3.95c-.46-.18-1.13-.25-1.69-.25-1.73,0-2.57.88-2.57,2.57v1.45h4.2v3.91h-4.2v13.54h-4.9v-13.54Z"/>
        <path class="cls-2" d="M215.22,33.73h4.83v1.38c.81-1.27,1.66-1.8,2.89-1.8,1.83,0,3,1.2,3,2.96s-1.16,2.96-2.93,2.96c-1.06,0-1.97-.53-2.4-1.34-.42.18-.53.46-.53,1.55v11.74h-4.87v-17.46Z"/>
        <path class="cls-2" d="M226.22,28.97c0-1.48,1.13-2.57,2.75-2.57s2.68,1.09,2.68,2.57-1.13,2.57-2.68,2.57-2.75-1.09-2.75-2.57ZM226.51,33.73h4.87v17.46h-4.87v-17.46Z"/>
        <path class="cls-2" d="M233.31,46.99c-.56-1.3-.85-2.79-.85-4.51s.28-3.24.85-4.51c1.38-3.03,4.3-4.73,8.29-4.73,2.71,0,5.01.78,6.59,2.22,1.38,1.23,2.15,2.93,2.22,4.94h-5.29c-.07-.99-.42-1.73-.99-2.29-.6-.49-1.48-.81-2.5-.81-1.59,0-2.82.71-3.42,2.01-.35.81-.49,1.73-.49,3.14s.14,2.36.49,3.14c.6,1.3,1.83,2.01,3.42,2.01,1.06,0,1.94-.28,2.5-.81.6-.56.95-1.38.99-2.29h5.29c-.07,2.05-.81,3.7-2.19,4.97-1.59,1.41-3.92,2.19-6.63,2.19-3.95,0-6.91-1.62-8.29-4.65Z"/>
        <path class="cls-2" d="M267.87,41.06v10.12h-4.9v-1.97c-1.16,1.52-3.07,2.43-5.89,2.43s-5.04-.99-5.92-2.96c-.32-.67-.46-1.45-.46-2.4s.14-1.66.42-2.33c1.27-2.75,4.58-3.39,8.71-3.39h3.14v-.35c0-.99-.07-1.41-.32-1.97-.46-.99-1.48-1.45-3.03-1.45s-2.61.42-3.07,1.41c-.18.39-.21.67-.25,1.09h-4.94c0-.95.18-1.76.49-2.5,1.13-2.47,3.98-3.56,7.72-3.56,4.02,0,6.45,1.13,7.58,3.6.49,1.13.71,2.54.71,4.23ZM262.62,46c.25-.56.35-1.2.35-2.15v-.25h-2.79c-1.97,0-3.7.25-4.2,1.3-.11.25-.18.53-.18.88s.07.67.18.95c.42.92,1.55,1.23,2.82,1.23,1.94,0,3.21-.71,3.81-1.97Z"/>
      </g>
    </g>
  </g>
</svg>