<?xml version="1.0" encoding="UTF-8"?>
<svg id="Layer_2" data-name="Layer 2" xmlns="http://www.w3.org/2000/svg" viewBox="0 0 122.31 122.31">
  <defs>
    <style>
      .cls-1 {
        fill: #8bba8e;
      }

      .cls-2 {
        fill: #2e7d33;
      }

      .cls-3 {
        fill: #e7f6e8;
      }
    </style>
  </defs>
  <g id="Layer_1-2" data-name="Layer 1">
    <g>
      <circle class="cls-3" cx="61.16" cy="61.16" r="61.16"/>
      <path class="cls-1" d="M61.21,12.37c11.08.37,21.6,4.16,29.94,10.57,4.88,3.77,9.01,8.46,12.3,13.68,4.24,6.71,7.51,14.31,7.7,22.68.22,9.92-3.63,19.32-8.78,27.15-7.66,11.64-19.61,21.83-34.2,23.23-5.45.52-10.72-1-15.05-3.67-9.58-5.92-15.44-15.54-21.83-25.42-1.57-2.42-3.14-4.83-4.66-7.21-3.36-5.26-6.66-10.3-8.09-16.3-1.02-4.28-1.03-8.76-.17-13.14,1.57-7.87,6.05-14.99,11.95-20.35,8.2-7.47,19.21-11.59,30.9-11.2Z"/>
      <path class="cls-2" d="M61.25,22.63c7.8.92,15.78,3.45,22.16,7.94,3.7,2.64,6.83,6,9.72,9.51,3.69,4.65,7.81,9.64,8.33,15.62.44,6.39-3.23,12.73-5.95,18.49-4.16,7.89-9.2,19.92-17.81,22.75-4.42,1.41-8.81-.92-11.35-4.85-5.31-8.07-4.2-19.33-9.8-27.35-1.35-1.99-3.04-3.71-4.95-5.19-4.25-3.36-9.66-5.45-13.4-9.14-2.16-2.1-3.68-4.87-3.91-7.89-.43-5.28,2.51-10.31,6.42-13.79,5.53-4.99,13.13-6.95,20.48-6.09h.05Z"/>
    </g>
  </g>
</svg>