<?xml version="1.0" encoding="UTF-8"?>
<svg id="Layer_2" data-name="Layer 2" xmlns="http://www.w3.org/2000/svg" viewBox="0 0 156.29 93.17">
  <defs>
    <style>
      .cls-1 {
        fill: #8bba8e;
      }

      .cls-2 {
        fill: #2e7d33;
      }

      .cls-3 {
        fill: #e7f6e8;
      }
    </style>
  </defs>
  <g id="Layer_1-2" data-name="Layer 1">
    <g>
      <g>
        <circle class="cls-3" cx="81.88" cy="31.64" r="31.64"/>
        <path class="cls-1" d="M81.91,6.4c5.73.19,11.18,2.15,15.49,5.47,2.52,1.95,4.66,4.38,6.36,7.08,2.19,3.47,3.89,7.4,3.98,11.73.12,5.13-1.88,9.99-4.54,14.04-3.96,6.02-10.15,11.29-17.7,12.02-2.82.27-5.55-.52-7.78-1.9-4.96-3.06-7.99-8.04-11.3-13.15-.81-1.25-1.63-2.5-2.41-3.73-1.74-2.72-3.45-5.33-4.19-8.43-.53-2.21-.54-4.53-.09-6.8.81-4.07,3.13-7.75,6.18-10.53,4.24-3.86,9.94-6,15.99-5.79Z"/>
        <path class="cls-2" d="M81.93,11.71c4.04.48,8.16,1.79,11.46,4.11,1.91,1.36,3.53,3.11,5.03,4.92,1.91,2.41,4.04,4.99,4.31,8.08.23,3.31-1.67,6.59-3.08,9.56-2.15,4.08-4.76,10.3-9.21,11.77-2.28.73-4.56-.48-5.87-2.51-2.75-4.17-2.17-10-5.07-14.15-.7-1.03-1.57-1.92-2.56-2.68-2.2-1.74-5-2.82-6.93-4.73-1.12-1.09-1.9-2.52-2.03-4.08-.22-2.73,1.3-5.34,3.32-7.13,2.86-2.58,6.79-3.6,10.59-3.15h.03Z"/>
      </g>
      <g>
        <path class="cls-2" d="M20.28,81.08v1.44c0,2.02-.33,3.94-1.08,5.63-1.51,3.31-4.45,5.03-8.76,5.03-4.61,0-7.82-2.02-9.39-5.48-.69-1.54-1.05-3.4-1.05-5.69s.36-4.15,1.05-5.69c1.59-3.49,4.78-5.48,9.45-5.48,2.89,0,5.3.81,6.98,2.35,1.5,1.36,2.44,3.28,2.62,5.51h-4.6c-.15-1.17-.57-2.11-1.32-2.77-.87-.81-2.2-1.2-3.73-1.2-2.44,0-4.15.99-5,2.89-.51,1.11-.72,2.38-.72,4.39s.21,3.25.72,4.39c.87,1.93,2.65,2.89,5.12,2.89s4-.84,4.79-2.53c.3-.69.45-1.36.48-2.29h-5.23v-3.4h9.69Z"/>
        <path class="cls-2" d="M21.55,77.74h4.12v1.17c.69-1.08,1.42-1.53,2.47-1.53,1.56,0,2.56,1.02,2.56,2.53s-.99,2.53-2.5,2.53c-.9,0-1.69-.45-2.05-1.14-.36.15-.45.39-.45,1.32v10.02h-4.15v-14.89Z"/>
        <path class="cls-2" d="M41.26,87.55h4.18c-.12,1.5-.75,2.68-1.75,3.61-1.38,1.23-3.46,1.87-5.75,1.87-3.58,0-6.2-1.44-7.34-4.03-.51-1.08-.72-2.35-.72-3.85s.24-2.71.72-3.76c1.11-2.56,3.61-4.06,7.07-4.06s5.96,1.54,7.1,4.06c.6,1.44.75,2.8.75,4.88h-11.43c.06.72.18,1.32.39,1.83.54,1.17,1.69,1.78,3.37,1.78,1.08,0,2.02-.24,2.59-.78.45-.39.72-.99.81-1.54ZM34.49,82.25c-.18.42-.3.81-.36,1.35h7.16c-.06-.6-.18-.99-.36-1.41-.54-1.14-1.62-1.75-3.19-1.75s-2.71.6-3.25,1.81Z"/>
        <path class="cls-2" d="M57.3,87.55h4.18c-.12,1.5-.75,2.68-1.75,3.61-1.38,1.23-3.46,1.87-5.75,1.87-3.58,0-6.2-1.44-7.34-4.03-.51-1.08-.72-2.35-.72-3.85s.24-2.71.72-3.76c1.11-2.56,3.61-4.06,7.07-4.06s5.96,1.54,7.1,4.06c.6,1.44.75,2.8.75,4.88h-11.43c.06.72.18,1.32.39,1.83.54,1.17,1.69,1.78,3.37,1.78,1.08,0,2.02-.24,2.59-.78.45-.39.72-.99.81-1.54ZM50.53,82.25c-.18.42-.3.81-.36,1.35h7.16c-.06-.6-.18-.99-.36-1.41-.54-1.14-1.62-1.75-3.19-1.75s-2.71.6-3.25,1.81Z"/>
        <path class="cls-2" d="M76.77,83.25v9.39h-4.15v-8.52c0-2.35-.96-3.34-2.86-3.34s-3.1,1.17-3.1,3.49v8.37h-4.15v-14.89h4.15v1.8c1.02-1.44,2.53-2.23,4.6-2.23,3.49,0,5.51,2.05,5.51,5.93Z"/>
        <path class="cls-2" d="M95.97,88.15h-8.91l-1.44,4.48h-4.63l7.22-21.24h6.65l7.22,21.24h-4.63l-1.47-4.48ZM94.83,84.66l-3.28-10.08h-.06l-3.28,10.08h6.62Z"/>
        <path class="cls-2" d="M102.99,81.08h-2.02v-3.34h2.02v-1.66c0-3.55,1.68-5.14,5.66-5.14.78,0,1.6.09,2.17.21v3.37c-.39-.15-.96-.21-1.44-.21-1.47,0-2.2.75-2.2,2.2v1.23h3.58v3.34h-3.58v11.55h-4.18v-11.55Z"/>
        <path class="cls-2" d="M111.36,77.74h4.12v1.17c.69-1.08,1.42-1.53,2.47-1.53,1.56,0,2.56,1.02,2.56,2.53s-.99,2.53-2.5,2.53c-.9,0-1.69-.45-2.05-1.14-.36.15-.45.39-.45,1.32v10.02h-4.15v-14.89Z"/>
        <path class="cls-2" d="M120.75,73.68c0-1.26.96-2.2,2.35-2.2s2.29.93,2.29,2.2-.96,2.2-2.29,2.2-2.35-.93-2.35-2.2ZM120.99,77.74h4.15v14.89h-4.15v-14.89Z"/>
        <path class="cls-2" d="M126.8,89.05c-.48-1.11-.72-2.38-.72-3.85s.24-2.77.72-3.85c1.17-2.59,3.67-4.03,7.07-4.03,2.32,0,4.27.66,5.63,1.9,1.17,1.05,1.84,2.5,1.9,4.21h-4.51c-.06-.84-.36-1.47-.84-1.96-.51-.42-1.26-.69-2.13-.69-1.36,0-2.41.6-2.92,1.71-.3.69-.42,1.47-.42,2.68s.12,2.02.42,2.68c.51,1.11,1.56,1.71,2.92,1.71.9,0,1.65-.24,2.13-.69.51-.48.81-1.17.84-1.96h4.51c-.06,1.74-.69,3.16-1.87,4.24-1.36,1.2-3.34,1.87-5.66,1.87-3.37,0-5.9-1.38-7.07-3.97Z"/>
        <path class="cls-2" d="M156.29,84v8.64h-4.18v-1.69c-.99,1.29-2.62,2.08-5.03,2.08s-4.3-.84-5.05-2.53c-.27-.57-.39-1.23-.39-2.05s.12-1.41.36-1.99c1.08-2.35,3.91-2.89,7.43-2.89h2.68v-.3c0-.84-.06-1.2-.27-1.68-.39-.84-1.26-1.23-2.59-1.23s-2.23.36-2.62,1.2c-.15.33-.18.57-.21.93h-4.21c0-.81.15-1.5.42-2.14.96-2.11,3.4-3.04,6.59-3.04,3.43,0,5.51.96,6.47,3.07.42.96.6,2.17.6,3.61ZM151.8,88.21c.21-.48.3-1.02.3-1.84v-.21h-2.38c-1.69,0-3.16.21-3.58,1.11-.09.21-.15.45-.15.75s.06.57.15.81c.36.78,1.32,1.05,2.41,1.05,1.65,0,2.74-.6,3.25-1.69Z"/>
      </g>
    </g>
  </g>
</svg>