<svg preserveAspectRatio="none" width="100%" height="100%" overflow="visible" style="display: block;" viewBox="0 0 24 24" fill="none" xmlns="http://www.w3.org/2000/svg">
<g id="Recycle">
<path id="Vector" d="M9 19.5C9 19.6989 8.92098 19.8897 8.78033 20.0303C8.63968 20.171 8.44891 20.25 8.25 20.25H3.75C3.35516 20.2498 2.96733 20.1456 2.62548 19.948C2.28363 19.7505 1.99979 19.4664 1.80247 19.1244C1.60515 18.7824 1.50131 18.3945 1.50137 17.9997C1.50143 17.6048 1.60539 17.2169 1.80281 16.875L5.0175 11.3203L3.70031 11.6719C3.6049 11.6974 3.5054 11.7038 3.4075 11.6908C3.30959 11.6779 3.2152 11.6457 3.12972 11.5963C2.95706 11.4964 2.83116 11.3321 2.77969 11.1394C2.72822 10.9467 2.75541 10.7414 2.85527 10.5688C2.95513 10.3961 3.11949 10.2702 3.31219 10.2188L6.38437 9.39656C6.47954 9.37105 6.5788 9.36453 6.67649 9.3774C6.77418 9.39026 6.86837 9.42224 6.95369 9.47152C7.03901 9.52079 7.11379 9.5864 7.17374 9.66458C7.2337 9.74277 7.27767 9.832 7.30312 9.92719L8.12719 12.9994C8.15322 13.095 8.16004 13.1948 8.14727 13.2931C8.13451 13.3913 8.10239 13.4861 8.05279 13.5718C8.00319 13.6576 7.93709 13.7327 7.8583 13.7928C7.77951 13.8529 7.68959 13.8967 7.59375 13.9219C7.53007 13.9385 7.46455 13.947 7.39875 13.9472C7.23376 13.947 7.07343 13.8925 6.94258 13.792C6.81174 13.6915 6.71769 13.5506 6.675 13.3912L6.31875 12.0647L3.10406 17.625C3.03839 17.7388 3.00373 17.8678 3.00358 17.9991C3.00342 18.1305 3.03776 18.2595 3.10316 18.3735C3.16857 18.4874 3.26274 18.5821 3.37625 18.6482C3.48977 18.7143 3.61865 18.7494 3.75 18.75H8.25C8.44891 18.75 8.63968 18.829 8.78033 18.9697C8.92098 19.1103 9 19.3011 9 19.5ZM22.1934 16.875L20.0241 13.125C19.9203 12.9618 19.7574 12.8449 19.5696 12.7989C19.3817 12.7529 19.1833 12.7812 19.0158 12.878C18.8483 12.9748 18.7247 13.1326 18.6708 13.3184C18.6169 13.5042 18.6369 13.7036 18.7266 13.875L20.8959 17.625C20.9616 17.7388 20.9963 17.8678 20.9964 17.9991C20.9966 18.1305 20.9622 18.2595 20.8968 18.3735C20.8314 18.4874 20.7373 18.5821 20.6237 18.6482C20.5102 18.7143 20.3813 18.7494 20.25 18.75H13.8103L14.7797 17.7806C14.9204 17.64 14.9995 17.4493 14.9996 17.2503C14.9997 17.0514 14.9208 16.8606 14.7802 16.7198C14.6395 16.5791 14.4488 16.5 14.2499 16.4999C14.0509 16.4998 13.8601 16.5788 13.7194 16.7194L11.4694 18.9694C11.3996 19.039 11.3443 19.1217 11.3066 19.2128C11.2688 19.3038 11.2494 19.4014 11.2494 19.5C11.2494 19.5986 11.2688 19.6962 11.3066 19.7872C11.3443 19.8783 11.3996 19.961 11.4694 20.0306L13.7194 22.2806C13.7891 22.3502 13.8718 22.4055 13.9628 22.4431C14.0538 22.4808 14.1514 22.5001 14.2499 22.5001C14.3484 22.5 14.4459 22.4806 14.5369 22.4429C14.6279 22.4051 14.7105 22.3498 14.7802 22.2802C14.8498 22.2105 14.905 22.1278 14.9426 22.0367C14.9803 21.9457 14.9997 21.8482 14.9996 21.7497C14.9996 21.6512 14.9801 21.5536 14.9424 21.4626C14.9047 21.3717 14.8494 21.289 14.7797 21.2194L13.8103 20.25H20.25C20.6448 20.2498 21.0327 20.1456 21.3745 19.948C21.7164 19.7505 22.0002 19.4664 22.1975 19.1244C22.3948 18.7824 22.4987 18.3945 22.4986 17.9997C22.4986 17.6048 22.3946 17.2169 22.1972 16.875H22.1934ZM12 3C12.1318 2.99868 12.2616 3.03278 12.3757 3.09875C12.4898 3.16472 12.5841 3.26012 12.6487 3.375L15.8634 8.92969L14.5434 8.57531C14.3537 8.53077 14.154 8.56186 13.9868 8.662C13.8195 8.76214 13.6978 8.92347 13.6475 9.11178C13.5972 9.3001 13.6221 9.50062 13.7171 9.67086C13.812 9.84109 13.9696 9.96766 14.1562 10.0237L17.2294 10.8478C17.2927 10.8645 17.3579 10.873 17.4234 10.8731C17.5884 10.873 17.7488 10.8184 17.8796 10.7179C18.0104 10.6174 18.1045 10.4766 18.1472 10.3172L18.9712 7.24313C18.9995 7.14715 19.0083 7.04648 18.9971 6.94705C18.9859 6.84762 18.9549 6.75144 18.906 6.66417C18.857 6.5769 18.7911 6.50031 18.7121 6.43891C18.6331 6.3775 18.5426 6.33253 18.446 6.30663C18.3493 6.28073 18.2485 6.27443 18.1494 6.28811C18.0502 6.30178 17.9548 6.33515 17.8688 6.38625C17.7828 6.43736 17.7079 6.50515 17.6484 6.58566C17.589 6.66616 17.5463 6.75774 17.5228 6.855L17.1666 8.18344L13.9472 2.625C13.7495 2.2836 13.4656 2.00017 13.1238 1.80313C12.7821 1.60609 12.3945 1.50237 12 1.50237C11.6055 1.50237 11.2179 1.60609 10.8762 1.80313C10.5344 2.00017 10.2505 2.2836 10.0528 2.625L7.88156 6.375C7.78827 6.5468 7.76575 6.74823 7.81879 6.93639C7.87183 7.12455 7.99625 7.28456 8.16553 7.38234C8.33481 7.48012 8.53558 7.50794 8.72507 7.45987C8.91456 7.4118 9.0778 7.29165 9.18 7.125L11.3512 3.375C11.4159 3.26012 11.5102 3.16472 11.6243 3.09875C11.7384 3.03278 11.8682 2.99868 12 3Z" fill="var(--fill-0, #2E7D33)"/>
</g>
</svg>
