<svg preserveAspectRatio="none" width="100%" height="100%" overflow="visible" style="display: block;" viewBox="0 0 40 40" fill="none" xmlns="http://www.w3.org/2000/svg">
<g id="ShippingContainer">
<path id="Vector" d="M36.9375 11.0391L20.3437 6.29844C20.1748 6.25001 19.9975 6.23776 19.8234 6.2625L3.39687 8.60937C2.80212 8.69685 2.25843 8.99468 1.86452 9.4488C1.47061 9.90292 1.25257 10.4832 1.25 11.0844V28.9156C1.25257 29.5168 1.47061 30.0971 1.86452 30.5512C2.25843 31.0053 2.80212 31.3031 3.39687 31.3906L19.8234 33.7344C19.8819 33.7435 19.9409 33.7487 20 33.75C20.1163 33.7502 20.232 33.7339 20.3437 33.7016L36.9375 28.9609C37.4579 28.8102 37.9157 28.4952 38.2424 28.0629C38.569 27.6307 38.7471 27.1043 38.75 26.5625V13.4375C38.7471 12.8957 38.569 12.3693 38.2424 11.9371C37.9157 11.5048 37.4579 11.1898 36.9375 11.0391ZM10 18.75H7.5C7.16848 18.75 6.85054 18.8817 6.61612 19.1161C6.3817 19.3505 6.25 19.6685 6.25 20C6.25 20.3315 6.3817 20.6495 6.61612 20.8839C6.85054 21.1183 7.16848 21.25 7.5 21.25H10V29.8094L3.75 28.9156V11.0844L10 10.1906V18.75ZM18.75 31.0594L12.5 30.1656V21.25H15C15.3315 21.25 15.6495 21.1183 15.8839 20.8839C16.1183 20.6495 16.25 20.3315 16.25 20C16.25 19.6685 16.1183 19.3505 15.8839 19.1161C15.6495 18.8817 15.3315 18.75 15 18.75H12.5V9.83438L18.75 8.94063V31.0594Z" fill="var(--fill-0, #2E7D33)"/>
</g>
</svg>
